<svg width="128" height="128" viewBox="0 0 128 128" fill="none" xmlns="http://www.w3.org/2000/svg">
<rect width="128" height="128" rx="32" fill="white"/>
<mask id="mask0_164_1447" style="mask-type:alpha" maskUnits="userSpaceOnUse" x="0" y="0" width="128" height="128">
<rect width="128" height="128" rx="32" fill="white"/>
</mask>
<g mask="url(#mask0_164_1447)">
<rect width="128" height="128" rx="32" fill="#1682E7"/>
<rect opacity="0.5" x="21" y="8" width="86" height="25" rx="2" fill="white"/>
<rect x="18" y="12.9999" width="92" height="25" rx="2" fill="white"/>
<path d="M0 34C0 25.1634 7.16344 18 16 18H41.3944C43.647 18 45.7505 19.1258 47 21C48.2495 22.8742 50.353 24 52.6056 24H120C124.418 24 128 27.5817 128 32V96C128 113.673 113.673 128 96 128H32C14.3269 128 0 113.673 0 96V34Z" fill="#47A7FF"/>
<path opacity="0.5" fill-rule="evenodd" clip-rule="evenodd" d="M76 72C80.4182 72 84 68.4183 84 64C84 59.5817 80.4182 56 76 56C71.5817 56 68 59.5817 68 64C68 68.4183 71.5817 72 76 72ZM62.7443 85.555C64.8179 79.9034 68.9736 76 76 76C83.0261 76 87.182 79.9034 89.2556 85.555C89.7033 86.7751 88.743 88 87.4434 88H64.5566C63.257 88 62.2966 86.7751 62.7443 85.555Z" fill="white"/>
<mask id="path-8-outside-1_164_1447" maskUnits="userSpaceOnUse" x="36.6328" y="53" width="34" height="38" fill="black">
<rect fill="white" x="36.6328" y="53" width="34" height="38"/>
<path fill-rule="evenodd" clip-rule="evenodd" d="M54 72C58.4182 72 62 68.4183 62 64C62 59.5817 58.4182 56 54 56C49.5817 56 46 59.5817 46 64C46 68.4183 49.5817 72 54 72ZM40.7443 85.555C42.8179 79.9034 46.9736 76 54 76C61.0261 76 65.182 79.9034 67.2556 85.555C67.7033 86.7751 66.743 88 65.4434 88H42.5566C41.257 88 40.2966 86.7751 40.7443 85.555Z"/>
</mask>
<path fill-rule="evenodd" clip-rule="evenodd" d="M54 72C58.4182 72 62 68.4183 62 64C62 59.5817 58.4182 56 54 56C49.5817 56 46 59.5817 46 64C46 68.4183 49.5817 72 54 72ZM40.7443 85.555C42.8179 79.9034 46.9736 76 54 76C61.0261 76 65.182 79.9034 67.2556 85.555C67.7033 86.7751 66.743 88 65.4434 88H42.5566C41.257 88 40.2966 86.7751 40.7443 85.555Z" fill="white"/>
<path d="M40.7443 85.555L43.5607 86.5884L43.5607 86.5884L40.7443 85.555ZM67.2556 85.555L64.4392 86.5884V86.5884L67.2556 85.555ZM59 64C59 66.7614 56.7614 69 54 69V75C60.0751 75 65 70.0751 65 64H59ZM54 59C56.7614 59 59 61.2386 59 64H65C65 57.9249 60.0751 53 54 53V59ZM49 64C49 61.2386 51.2385 59 54 59V53C47.9248 53 43 57.9249 43 64H49ZM54 69C51.2385 69 49 66.7614 49 64H43C43 70.0751 47.9248 75 54 75V69ZM54 73C49.898 73 46.4386 74.1524 43.6801 76.2846C40.9514 78.3938 39.1076 81.3064 37.9279 84.5217L43.5607 86.5884C44.4546 84.152 45.7254 82.2871 47.3495 81.0317C48.944 79.7993 51.0755 79 54 79V73ZM70.072 84.5216C68.8923 81.3064 67.0484 78.3938 64.3197 76.2846C61.5613 74.1524 58.1018 73 54 73V79C56.9243 79 59.0558 79.7993 60.6503 81.0317C62.2745 82.2871 63.5453 84.1521 64.4392 86.5884L70.072 84.5216ZM65.4434 91C68.5635 91 71.327 87.942 70.072 84.5216L64.4392 86.5884C64.2865 86.1722 64.3882 85.7216 64.6111 85.4266C64.8185 85.152 65.1314 85 65.4434 85V91ZM42.5566 91H65.4434V85H42.5566V91ZM37.9279 84.5217C36.6729 87.942 39.4364 91 42.5566 91V85C42.8686 85 43.1814 85.152 43.3889 85.4266C43.6117 85.7216 43.7134 86.1722 43.5607 86.5884L37.9279 84.5217Z" fill="#47A7FF" mask="url(#path-8-outside-1_164_1447)"/>
</g>
</svg>
